<svg width="18" height="18" viewBox="0 0 18 18" fill="none" xmlns="http://www.w3.org/2000/svg">
<path d="M8.88806 4.43311C11.226 4.43311 13.1556 6.36279 13.1556 8.70068C13.1556 11.0757 11.226 12.9683 8.88806 12.9683C6.51306 12.9683 4.62048 11.0757 4.62048 8.70068C4.62048 6.36279 6.51306 4.43311 8.88806 4.43311ZM8.88806 11.4839C10.4095 11.4839 11.6342 10.2593 11.6342 8.70068C11.6342 7.1792 10.4095 5.95459 8.88806 5.95459C7.32947 5.95459 6.10486 7.1792 6.10486 8.70068C6.10486 10.2593 7.36658 11.4839 8.88806 11.4839ZM14.306 4.28467C14.306 4.84131 13.8607 5.28662 13.3041 5.28662C12.7474 5.28662 12.3021 4.84131 12.3021 4.28467C12.3021 3.72803 12.7474 3.28271 13.3041 3.28271C13.8607 3.28271 14.306 3.72803 14.306 4.28467ZM17.1263 5.28662C17.2006 6.65967 17.2006 10.7788 17.1263 12.1519C17.0521 13.4878 16.7552 14.6382 15.7904 15.6401C14.8256 16.605 13.6381 16.9019 12.3021 16.9761C10.9291 17.0503 6.80994 17.0503 5.43689 16.9761C4.10095 16.9019 2.95056 16.605 1.94861 15.6401C0.983765 14.6382 0.68689 13.4878 0.612671 12.1519C0.538452 10.7788 0.538452 6.65967 0.612671 5.28662C0.68689 3.95068 0.983765 2.76318 1.94861 1.79834C2.95056 0.833496 4.10095 0.536621 5.43689 0.462402C6.80994 0.388184 10.9291 0.388184 12.3021 0.462402C13.6381 0.536621 14.8256 0.833496 15.7904 1.79834C16.7552 2.76318 17.0521 3.95068 17.1263 5.28662ZM15.3451 13.5991C15.7904 12.5229 15.6791 9.92529 15.6791 8.70068C15.6791 7.51318 15.7904 4.91553 15.3451 3.80225C15.0482 3.09717 14.4916 2.50342 13.7865 2.24365C12.6732 1.79834 10.0756 1.90967 8.88806 1.90967C7.66345 1.90967 5.0658 1.79834 3.98962 2.24365C3.24744 2.54053 2.6908 3.09717 2.39392 3.80225C1.94861 4.91553 2.05994 7.51318 2.05994 8.70068C2.05994 9.92529 1.94861 12.5229 2.39392 13.5991C2.6908 14.3413 3.24744 14.8979 3.98962 15.1948C5.0658 15.6401 7.66345 15.5288 8.88806 15.5288C10.0756 15.5288 12.6732 15.6401 13.7865 15.1948C14.4916 14.8979 15.0853 14.3413 15.3451 13.5991Z" fill="#141414"/>
</svg>
