<svg width="369" height="110" viewBox="0 0 369 110" fill="none" xmlns="http://www.w3.org/2000/svg">
<path d="M54.3206 60.8136C51.1323 55.0417 48.7534 48.87 47.9587 42.3521C49.9185 42.2254 51.8782 42.1035 53.8379 41.9768C54.0281 41.967 54.2231 41.9524 54.3986 42.0158C54.7154 42.1279 54.9056 42.4496 55.0713 42.747C57.0749 46.3496 59.332 49.8157 61.8134 53.1063C64.402 56.5383 67.2392 59.7899 69.5841 63.3876C71.9289 66.9853 73.7863 71.0218 74.1373 75.3069C74.4883 79.592 73.1525 84.1549 69.9497 87.0214C67.8827 88.8739 65.2405 89.8733 62.569 90.4875C61.1748 90.8093 59.7708 90.9994 58.357 91.2188C57.6697 91.326 57.0262 91.3748 56.3242 91.365C55.6222 91.3553 54.4961 91.0384 53.8428 91.2188C56.1974 90.5704 58.5325 89.7173 60.5215 88.2987C62.5105 86.88 64.1436 84.8521 64.6896 82.4682C65.2307 80.1136 64.6701 77.6225 63.6415 75.4385C62.6129 73.2545 61.1406 71.3143 59.7415 69.3497C57.7915 66.6148 55.9439 63.763 54.3157 60.8087L54.3206 60.8136Z" fill="#7FA154"/>
<path d="M24.6124 84.0868C24.4271 85.5883 24.3004 87.0995 24.2321 88.6205C24.0859 91.877 24.2321 95.2066 25.3241 98.273C26.4161 101.339 28.5757 104.147 31.569 105.434C34.7328 106.794 38.3939 106.322 41.6699 105.264C45.4967 104.03 49.0701 102.032 52.1316 99.4235C54.3838 97.4978 56.6653 95.1091 59.6244 94.997C59.3124 95.0116 58.274 96.4985 58.0156 96.7617C57.4453 97.3614 56.8554 97.9463 56.2509 98.5167C55.0468 99.6575 53.7842 100.735 52.4679 101.744C49.8403 103.767 47.008 105.532 44.0342 106.994C41.7479 108.116 39.1593 109.461 36.6048 109.671C33.8358 109.895 30.8816 109.875 28.371 108.53C24.2809 106.336 22.6332 101.315 22.1749 96.6984C21.3852 88.6985 23.0573 80.6354 25.5289 72.9817C30.438 57.7669 38.5304 43.6295 48.8702 31.4323C54.7445 24.505 61.4622 18.0993 69.5401 13.941C72.3968 12.4687 75.4631 11.2744 78.6709 11.0745C81.8786 10.8746 85.2569 11.7716 87.5628 14.0092C90.1027 16.4711 91.0143 20.1517 91.3896 23.6714C92.9399 38.1452 87.3044 52.3703 80.9572 65.4742C80.6598 62.5736 82.0053 59.79 83.2143 57.1332C87.3775 47.9682 90.2684 37.9502 89.425 27.9224C89.1374 24.5294 88.3428 20.9999 86.0711 18.4649C83.2875 15.3645 78.7099 14.3407 74.5954 15.0135C70.4809 15.6862 66.7613 17.8312 63.3635 20.2443C52.2632 28.1174 43.693 39.1104 36.8534 50.8737C30.8816 61.1404 26.0554 72.3479 24.6173 84.0868H24.6124Z" fill="#67A746"/>
<path d="M2.82256 68.4381C2.72994 68.3308 2.63731 68.2236 2.54469 68.1114C0.877451 66.0835 -0.209666 63.4656 0.034082 60.8526C0.311955 57.8935 2.21807 55.3195 4.4313 53.3452C7.96565 50.1862 12.3726 48.1728 16.8283 46.5544C24.4284 43.7854 32.399 42.0304 40.4573 41.343C39.9844 42.1376 39.7553 42.4496 39.7553 42.4496C34.4367 43.0346 27.6946 44.4776 22.6198 46.1741C17.9642 47.7292 13.3769 49.6987 9.53539 52.7553C6.63966 55.0612 4.07055 58.3469 4.25093 62.047C4.39717 65.011 6.29354 67.6239 8.50677 69.6081C12.7187 73.391 18.1397 75.497 23.4534 77.4519C23.7752 77.5689 22.9854 78.3537 22.8879 78.4122C22.4638 78.6706 21.8398 78.5049 21.3864 78.4317C20.1774 78.2367 19.0221 77.7687 17.8911 77.3056C14.7565 76.0186 11.6511 74.639 8.70664 72.9571C6.54703 71.7238 4.4508 70.31 2.81769 68.4429L2.82256 68.4381Z" fill="#67A746"/>
<path d="M93.5701 76.214C97.163 74.9124 100.624 73.25 103.656 70.9441C105.363 69.6474 106.937 68.1313 108.024 66.2837C109.112 64.4361 109.677 62.2277 109.297 60.1168C108.912 58.0011 107.62 56.1486 106.123 54.6033C101.741 50.0793 95.6225 47.7539 89.7189 45.5651C89.8359 45.1897 89.948 44.8143 90.065 44.4341C96.0856 45.8478 101.975 48.0952 107.04 51.6393C108.882 52.9311 110.637 54.4083 111.91 56.2656C113.182 58.123 113.952 60.3947 113.684 62.6323C113.275 66.1033 110.55 68.8235 107.751 70.9246C99.7077 76.9598 88.9389 81.0694 78.8282 81.1913C77.8386 81.2011 76.4249 80.9573 75.484 81.2303C80.3151 79.8166 85.2583 78.8123 90.0748 77.3645C91.2448 77.0135 92.4099 76.6332 93.5604 76.2188L93.5701 76.214Z" fill="#67A746"/>
<path d="M76.7764 42.7912C75.1384 42.5377 73.5004 42.3184 71.8576 42.1282C66.0856 41.4604 60.2649 41.1679 54.4539 41.2654C50.7343 41.3239 46.9465 41.5286 43.2415 41.904L44.041 40.7876C44.041 40.7876 44.704 40.7291 45.1086 40.6999C59.1485 39.72 73.554 40.6999 87.3356 43.5371L86.9992 44.6827C86.9992 44.6827 85.1857 44.3658 84.7567 44.2683C83.3381 43.9612 81.9097 43.6736 80.4814 43.4104C79.2529 43.1861 78.0146 42.9765 76.7813 42.7864L76.7764 42.7912Z" fill="#67A746"/>
<path d="M50.0025 33.1195C50.5631 32.5247 51.1237 31.93 51.6844 31.3401C51.7526 33.8068 52.2352 36.2589 53.103 38.5648C53.1712 38.7403 53.4735 39.5105 53.2882 39.5398C53.2882 39.5398 47.877 39.5739 47.8575 39.7738C47.9745 38.4137 47.4968 36.8342 47.9648 35.5569C47.9648 35.5569 48.9203 34.3236 49.4467 33.7093C49.6222 33.5046 49.8172 33.3144 50.0025 33.1195Z" fill="#7FA154"/>
<path d="M52.3027 25.6705C51.8639 26.6406 51.8006 27.523 51.0986 28.3176C50.6598 28.8197 50.4161 28.9854 50.0115 29.5119C49.8165 29.7654 49.1145 30.4284 48.9048 30.6722C48.8512 30.7356 48.6562 30.9793 48.5587 30.9549C48.4173 30.9159 48.4661 30.6624 48.4905 30.5649C48.9195 29.0878 49.6702 27.7277 50.4551 26.4017C51.5373 24.5687 52.7366 22.726 54.5013 21.5365C54.5452 21.5073 54.5939 21.478 54.6427 21.4878C54.7597 21.5073 54.7499 21.6827 54.7061 21.7949C54.1649 23.1209 53.0681 24.1397 52.4246 25.417C52.3807 25.5047 52.3368 25.5925 52.2978 25.6802L52.3027 25.6705Z" fill="#7FA154"/>
<path d="M39.6147 52.2927C38.9127 55.5882 38.4155 58.9178 38.3472 62.2864C38.2156 68.463 39.6391 74.8638 43.4464 79.7339C47.2538 84.604 53.7131 87.6313 59.7483 86.3102C59.5582 86.3492 59.1048 87.1146 58.9488 87.2803C58.5978 87.6557 58.2225 88.0067 57.8178 88.3236C57.0525 88.9329 56.1993 89.4399 55.2975 89.825C53.4255 90.6148 51.6315 90.8195 49.6279 90.6148C45.3379 90.1809 41.1698 88.5575 37.7379 85.9446C33.5259 82.7368 30.4595 78.0618 29.1872 72.9235C28.9044 71.7779 28.7094 70.5982 28.8264 69.4233C28.9581 68.1363 29.465 66.9176 29.9769 65.7232C33.2139 58.1719 36.8555 50.7425 41.6768 44.0881C40.931 46.7986 40.2046 49.5335 39.6196 52.2829L39.6147 52.2927Z" fill="#0679BB"/>
<path d="M41.1153 3.42622C40.6473 2.53898 40.1159 1.68586 39.5114 0.881492C40.1354 0.803493 40.6717 1.29586 41.0909 1.76386C44.3425 5.40546 46.4339 10.0123 47.3358 14.8093C48.2376 19.6062 47.9792 24.5836 46.8824 29.3415C46.0731 32.8661 44.2304 37.0391 41.8514 39.7691C41.4175 40.2663 40.8959 40.7928 40.8959 40.7928L34.851 41.4217C34.7535 41.4266 35.085 40.8221 35.1971 40.5978C37.2641 36.3907 39.3944 32.1983 41.0178 27.801C42.6412 23.4038 43.7478 18.758 43.6795 14.0683C43.6308 10.3877 42.8215 6.66807 41.1104 3.42622H41.1153Z" fill="#0679BB"/>
<path d="M34.2265 51.9415C32.803 54.5983 31.5062 57.3234 30.346 60.107C30.0779 60.7505 27.9475 64.7431 27.9475 64.7431C27.9475 64.7431 28.1766 61.7011 28.3229 60.3069C28.825 55.5489 30.4581 50.9665 32.2326 46.5303C32.5739 45.682 33.2076 44.3316 33.9096 43.7466C33.9096 43.7466 37.5219 43.4347 39.662 43.03C37.6828 45.8965 35.8693 48.8751 34.2216 51.9415H34.2265Z" fill="#0679BB"/>
<path d="M24.3254 43.6979C24.3254 43.6979 24.2816 43.7077 24.2621 43.7077C23.7356 43.8052 23.1701 43.9271 22.6387 43.9563C22.4096 43.9709 22.0927 44.2439 21.9562 43.9953C21.8538 43.8101 22.239 43.3079 22.3218 43.1373C25.5052 36.7511 30.1851 31.2327 33.6659 25.0073C37.3513 18.4115 39.6718 10.8553 39.0235 3.32837C41.7876 7.30634 41.8314 12.6005 40.8369 17.3439C39.0722 25.7386 34.4849 33.2606 29.4539 40.2123C28.8397 41.0606 27.3967 42.8302 27.3967 42.8302L24.3254 43.6931V43.6979Z" fill="#0F63A8"/>
<path d="M19.7335 50.1719C19.831 49.7868 19.9382 49.4065 20.0504 49.0263C20.2112 48.4705 20.6744 47.3493 20.6744 47.3493C20.6744 47.3493 21.7079 46.9837 22.2002 46.8277C23.1752 46.5205 24.1551 46.2183 25.1301 45.9112C25.2276 45.8819 25.5688 45.8332 25.6615 45.8722C25.6615 45.8722 25.5493 46.3353 25.4567 46.5596C22.5854 53.6185 20.299 61.0869 21.274 68.6431C21.3032 68.8576 21.391 69.4719 21.1326 69.5986C20.8547 69.7351 20.5476 69.1794 20.4501 68.9893C19.4361 67.0539 18.9681 64.8699 18.739 62.7006C18.2905 58.5081 18.6805 54.2474 19.7433 50.167L19.7335 50.1719Z" fill="#0F63A8"/>
<path d="M78.1118 60.0241C78.2776 60.3702 78.4385 60.7261 78.5945 61.0819C80.3884 65.2354 79.4914 71.8459 77.9753 76.1115C78.1021 75.1365 78.1021 74.1273 78.0777 73.7422C77.9802 71.9775 77.8681 70.203 77.4537 68.487C76.4641 64.3725 73.8219 60.8821 71.2625 57.5086C68.1767 53.4429 65.1103 49.3577 62.1317 45.2139C61.4053 44.2048 60.8203 43.0592 60.0745 41.899C61.4541 41.8697 62.8678 41.8892 64.1353 41.9136C64.4473 41.9185 64.9056 41.9672 65.2176 41.977C65.2176 41.977 65.7148 42.562 65.9683 42.8935C67.7282 45.1701 69.4831 47.4467 71.243 49.7233C73.7731 52.9993 76.3227 56.3142 78.1118 60.0289V60.0241Z" fill="#DF7A2E"/>
<path d="M61.4591 35.8932C61.971 36.7902 62.5365 37.658 63.1508 38.4867C63.3116 38.7061 64.0234 39.5104 64.0819 39.7737L58.968 39.5982C58.7145 39.4227 58.5634 39.1302 58.4318 38.8523C57.0327 35.9127 56.1308 32.7342 55.7652 29.5021C55.6872 28.8196 55.4971 27.8105 55.6969 27.1524C55.6969 27.1524 57.9589 25.1488 58.1003 25.0708C58.4074 28.8684 59.5725 32.588 61.4591 35.8932Z" fill="#DF7A2E"/>
<path d="M55.3552 23.6128L57.5197 21.9456C57.5197 21.9456 57.3735 21.0145 57.5197 19.8298C57.5197 19.8298 55.7647 21.3898 55.3552 23.6128Z" fill="#DF7A2E"/>
<path d="M327.691 53.5774H328.175C328.659 55.7932 330.209 56.3029 331.57 56.3029C333.35 56.3029 334.55 55.4261 334.55 53.9705C334.55 52.5148 333.397 52.2168 331.592 51.7546C329.695 51.2449 327.756 50.7396 327.756 48.2645C327.756 46.3251 328.935 44.8911 331.846 44.8911C332.931 44.8911 333.972 45.146 334.805 45.5822L335.289 45.1892L335.518 45.4224V47.919H335.056C334.594 45.7032 333.047 45.241 331.937 45.241C330.343 45.241 329.371 46.1437 329.371 47.3877C329.371 48.6317 330.412 49.0507 331.959 49.4913C333.993 50.1132 336.162 50.7396 336.162 53.2578C336.162 55.2231 334.866 56.6528 331.609 56.6528C330.386 56.6528 329.298 56.4195 328.4 55.9358L327.916 56.3288L327.687 56.0956V53.5774H327.691Z" fill="#DF7A2E"/>
<path d="M339.427 53.7588C340.261 53.7588 340.861 54.3808 340.861 55.1928C340.861 56.0049 340.261 56.6269 339.427 56.6269C338.641 56.6269 338.019 56.0049 338.019 55.1928C338.019 54.3808 338.641 53.7588 339.427 53.7588Z" fill="#DF7A2E"/>
<path d="M350.147 55.076C349.085 56.0695 347.608 56.6699 346.014 56.6699C343.867 56.6699 342.895 55.6073 342.895 53.9919C342.895 51.2879 345.621 50.8949 350.147 50.1563V47.9836C350.147 46.3898 349.292 45.2797 347.746 45.2797C347.145 45.2797 346.593 45.4395 346.035 45.811V47.6812C346.035 48.6272 345.435 49.206 344.627 49.206C343.82 49.206 343.241 48.6963 343.241 47.7504C343.241 45.9233 345.483 44.9082 347.793 44.9082C350.89 44.9082 352.553 46.4329 352.553 48.4199V55.4648C352.553 55.9053 352.739 56.0436 353.106 56.0436C353.335 56.0436 353.685 55.9745 353.866 55.7887L354.026 55.9485C353.586 56.3891 352.847 56.5705 351.923 56.5705C350.951 56.5705 350.329 56.225 350.212 55.1365L350.143 55.0674L350.147 55.076ZM350.147 50.5018C346.891 51.0115 345.34 51.1929 345.34 53.6895C345.34 55.1235 346.079 55.8622 347.258 55.8622C348.299 55.8622 349.383 55.3525 350.147 54.5447V50.5018Z" fill="#DF7A2E"/>
<path d="M356.687 53.7588C357.521 53.7588 358.121 54.3808 358.121 55.1928C358.121 56.0049 357.521 56.6269 356.687 56.6269C355.901 56.6269 355.279 56.0049 355.279 55.1928C355.279 54.3808 355.901 53.7588 356.687 53.7588Z" fill="#DF7A2E"/>
<path d="M360.151 53.5774H360.635C361.119 55.7932 362.669 56.3029 364.03 56.3029C365.81 56.3029 367.01 55.4261 367.01 53.9705C367.01 52.5148 365.857 52.2168 364.052 51.7546C362.155 51.2449 360.216 50.7396 360.216 48.2645C360.216 46.3251 361.395 44.8911 364.306 44.8911C365.391 44.8911 366.432 45.146 367.265 45.5822L367.749 45.1892L367.978 45.4224V47.919H367.516C367.054 45.7032 365.507 45.241 364.397 45.241C362.803 45.241 361.831 46.1437 361.831 47.3877C361.831 48.6317 362.872 49.0507 364.419 49.4913C366.453 50.1132 368.621 50.7396 368.621 53.2578C368.621 55.2231 367.326 56.6528 364.069 56.6528C362.846 56.6528 361.758 56.4195 360.86 55.9358L360.376 56.3288L360.147 56.0956V53.5774H360.151Z" fill="#DF7A2E"/>
<path d="M168.74 59.2027C167.08 60.8623 165.072 61.4624 162.768 61.4624C157.693 61.4624 153.989 58.3507 150.277 56.002C142.86 55.1944 138 49.5636 138 41.0803C138 31.7006 143.883 25.8623 152.366 25.8623C160.849 25.8623 166.732 31.745 166.732 41.0433C166.732 49.0153 162.383 54.3869 155.9 55.7131C159.442 57.0763 161.909 59.8473 165.065 59.8473C166.043 59.8473 167.577 59.588 168.347 58.8248L168.732 59.2101L168.74 59.2027ZM152.366 55.3204C157.908 55.3204 161.872 50.675 161.872 41.0803C161.872 31.4857 157.908 26.4995 152.366 26.4995C146.824 26.4995 142.816 31.4487 142.816 41.0803C142.816 50.712 146.78 55.3204 152.366 55.3204Z" fill="#DF7A2E"/>
<path d="M193.812 55.1132V55.58L187.374 56.0912L186.818 55.5355L186.944 53.1054L186.818 52.9794C184.684 55.1503 181.528 56.1801 178.846 56.1801C174.371 56.1801 172.111 53.4092 172.111 49.4454V36.0573L169.555 35.5017V35.0349L175.993 34.3533L176.549 34.9534V48.7267C176.549 52.1793 177.786 54.7354 180.98 54.7354C182.943 54.7354 185.24 53.7944 186.818 52.0459V36.0573L184.262 35.5017V35.0349L190.656 34.3533L191.256 34.9534V54.565L193.812 55.1206V55.1132Z" fill="#DF7A2E"/>
<path d="M195.435 55.5358L197.991 54.7282V36.0502L195.435 35.4945V35.0277L201.873 34.3461L202.429 34.9462V54.7282L204.985 55.5358V55.9655H195.435V55.5358ZM199.91 25.6479C201.658 25.6479 202.977 26.9297 202.977 28.6782C202.977 30.4267 201.658 31.7085 199.91 31.7085C198.161 31.7085 196.879 30.4267 196.879 28.6782C196.879 26.9297 198.161 25.6479 199.91 25.6479Z" fill="#DF7A2E"/>
<path d="M213.601 54.7278L215.772 55.5354V55.9651H206.607V55.5354L209.163 54.7278V36.0498L206.607 35.4941V35.0273L213.046 34.3457L213.601 34.9458L213.475 37.5464L213.601 37.6723C215.565 35.583 218.632 34.4717 221.062 34.4717C223.752 34.4717 225.411 35.7534 226.219 37.7983C228.434 35.62 231.716 34.4717 234.317 34.4717C238.496 34.4717 240.2 37.3686 240.2 41.8065V54.7278L242.756 55.5354V55.9651H233.591V55.5354L235.769 54.7278V42.5326C235.769 38.7837 234.791 35.9683 231.887 35.9683C230.183 35.9683 227.967 36.8203 226.426 38.5244C226.723 39.4653 226.893 40.6582 226.893 41.8065V54.7278L229.071 55.5354V55.9651H220.292V55.5354L222.463 54.7278V42.5326C222.463 38.8207 221.485 35.9683 218.751 35.9683C217.002 35.9683 214.913 36.9907 213.594 38.7392V54.7278H213.601Z" fill="#DF7A2E"/>
<path d="M249.156 45.3038C249.156 51.2754 251.883 54.8539 257.425 54.8539C259.811 54.8539 261.855 54.1723 263.693 52.3423L264.16 52.8535C262.07 54.9428 259.344 56.1801 255.587 56.1801C248.171 56.1801 244.585 51.5792 244.585 45.5631C244.585 38.7839 249.105 34.4792 255.284 34.4792C260.826 34.4792 264.834 37.9763 264.834 43.0514C264.834 43.5626 264.789 44.1998 264.619 44.7555L264.019 45.3112H249.142L249.156 45.3038ZM249.156 44.6666L260.5 44.0294C260.5 38.1022 258.625 35.1164 255.469 35.1164C252.313 35.1164 249.327 38.0578 249.156 44.6666Z" fill="#DF7A2E"/>
<path d="M270.095 36.0498L267.539 35.4941V35.0273L273.977 34.3457L274.533 34.9458L274.407 38.6948L274.533 38.8207C274.533 38.8207 276.533 34.4717 280.756 34.4717C283.483 34.4717 285.706 36.3017 285.706 39.0726C285.706 41.0731 284.557 41.9325 283.105 41.9325C281.482 41.9325 280.379 40.8212 280.379 39.0726V35.6645C280.208 35.5385 279.993 35.4941 279.697 35.4941C276.326 35.4941 274.54 40.3544 274.54 40.3544V54.7204L278.378 55.528V55.9577H267.546V55.528L270.102 54.7204V36.0424L270.095 36.0498Z" fill="#DF7A2E"/>
<path d="M297.767 44.7926L295.167 47.608V54.7281L297.723 55.5357V55.9654H288.173V55.5357L290.729 54.7281V26.6777L288.173 26.122V25.6553L294.611 24.9736L295.167 25.5738V46.4671L305.147 35.8945L301.865 35.0869V34.6572H309.111V35.0869L306.295 35.8945L300.753 41.9031L308.644 54.8614L310.904 55.5431V55.9728H304.591L297.767 44.8001V44.7926Z" fill="#DF7A2E"/>
<path d="M152.686 63.1321V67.5595H152.253C151.994 66.5399 151.708 65.8067 151.394 65.3597C151.08 64.9128 150.654 64.5567 150.102 64.2913C149.795 64.1446 149.264 64.0748 148.496 64.0748H147.281V76.6866C147.281 77.5246 147.33 78.0483 147.42 78.2509C147.511 78.4604 147.693 78.6419 147.965 78.8025C148.237 78.9562 148.601 79.04 149.068 79.04H149.613V79.4869H141.052V79.04H141.596C142.071 79.04 142.455 78.9562 142.742 78.7886C142.951 78.6768 143.119 78.4813 143.237 78.209C143.328 78.0134 143.37 77.5106 143.37 76.6866V64.0748H142.19C141.087 64.0748 140.291 64.3053 139.788 64.7731C139.089 65.4226 138.649 66.3514 138.461 67.5595H138V63.1321H152.686Z" fill="#1D1D1B"/>
<path d="M157.26 68.2087V70.7646C158.007 69.5984 158.664 68.8233 159.222 68.4462C159.788 68.0621 160.326 67.8735 160.85 67.8735C161.297 67.8735 161.66 68.0132 161.932 68.2925C162.204 68.5719 162.337 68.9629 162.337 69.4657C162.337 70.0034 162.204 70.4224 161.946 70.7227C161.688 71.023 161.366 71.1696 160.996 71.1696C160.57 71.1696 160.2 71.03 159.886 70.7576C159.572 70.4853 159.39 70.3316 159.334 70.2967C159.25 70.2478 159.16 70.2269 159.055 70.2269C158.824 70.2269 158.601 70.3177 158.391 70.4923C158.063 70.7646 157.812 71.1557 157.644 71.6585C157.386 72.4406 157.26 73.2995 157.26 74.2423V76.8331L157.274 77.5105C157.274 77.9714 157.302 78.2646 157.358 78.3903C157.456 78.6068 157.595 78.7674 157.784 78.8652C157.972 78.963 158.294 79.0258 158.741 79.0538V79.4867H152.651V79.0538C153.14 79.0119 153.475 78.8792 153.643 78.6487C153.817 78.4183 153.901 77.8177 153.901 76.8331V70.597C153.901 69.9546 153.866 69.5425 153.803 69.368C153.72 69.1445 153.608 68.9769 153.454 68.8721C153.301 68.7674 153.035 68.6976 152.644 68.6557V68.2087H157.253H157.26Z" fill="#1D1D1B"/>
<path d="M169.76 77.8181C168.384 79.0332 167.148 79.6407 166.059 79.6407C165.416 79.6407 164.878 79.4312 164.452 79.0052C164.026 78.5862 163.81 78.0555 163.81 77.42C163.81 76.5611 164.18 75.7859 164.92 75.1016C165.66 74.4172 167.274 73.5024 169.753 72.3571V71.2259C169.753 70.3739 169.704 69.8362 169.613 69.6197C169.522 69.3962 169.348 69.2077 169.089 69.0401C168.831 68.8725 168.545 68.7957 168.223 68.7957C167.7 68.7957 167.274 68.9144 166.931 69.1448C166.722 69.2915 166.617 69.4591 166.617 69.6546C166.617 69.8222 166.729 70.0317 166.952 70.2831C167.26 70.6323 167.413 70.9605 167.413 71.2817C167.413 71.6728 167.267 72.008 166.973 72.2873C166.68 72.5666 166.296 72.7063 165.821 72.7063C165.311 72.7063 164.892 72.5527 164.55 72.2454C164.208 71.9381 164.04 71.582 164.04 71.17C164.04 70.5904 164.271 70.0387 164.725 69.515C165.186 68.9912 165.821 68.5862 166.645 68.2999C167.462 68.0205 168.314 67.8809 169.201 67.8809C170.269 67.8809 171.114 68.1113 171.736 68.5652C172.357 69.0191 172.762 69.5149 172.951 70.0457C173.063 70.3809 173.119 71.156 173.119 72.3711V76.7496C173.119 77.2664 173.14 77.5876 173.181 77.7203C173.223 77.853 173.279 77.9507 173.363 78.0136C173.44 78.0764 173.538 78.1114 173.642 78.1114C173.852 78.1114 174.061 77.9647 174.285 77.6644L174.648 77.9507C174.243 78.5443 173.831 78.9773 173.398 79.2496C172.965 79.522 172.476 79.6547 171.931 79.6547C171.289 79.6547 170.786 79.501 170.423 79.2008C170.06 78.9005 169.843 78.4396 169.76 77.832V77.8181ZM169.76 76.9382V73.1672C168.789 73.7398 168.063 74.3474 167.588 74.9968C167.274 75.4298 167.12 75.8697 167.12 76.3097C167.12 76.6798 167.253 77.008 167.518 77.2873C167.721 77.5038 168 77.6155 168.363 77.6155C168.768 77.6155 169.229 77.3921 169.76 76.9382Z" fill="#1D1D1B"/>
<path d="M180.36 64.0886V68.2157H183.035V69.4099H180.36V76.3652C180.36 77.0147 180.388 77.4337 180.451 77.6222C180.514 77.8108 180.619 77.9644 180.772 78.0831C180.926 78.2018 181.066 78.2577 181.191 78.2577C181.715 78.2577 182.211 77.8596 182.672 77.0635L183.035 77.3289C182.385 78.8722 181.324 79.6474 179.864 79.6474C179.152 79.6474 178.545 79.4448 178.049 79.0538C177.553 78.6557 177.239 78.2088 177.099 77.72C177.015 77.4476 176.98 76.7074 176.98 75.4993V69.4099H175.507V68.9909C176.519 68.2786 177.385 67.5244 178.091 66.7353C178.803 65.9462 179.424 65.0663 179.955 64.0956H180.353L180.36 64.0886Z" fill="#1D1D1B"/>
<path d="M190.333 77.8181C188.958 79.0332 187.721 79.6407 186.632 79.6407C185.99 79.6407 185.452 79.4312 185.026 79.0052C184.6 78.5862 184.383 78.0555 184.383 77.42C184.383 76.5611 184.754 75.7859 185.494 75.1016C186.234 74.4172 187.847 73.5024 190.326 72.3571V71.2259C190.326 70.3739 190.277 69.8362 190.187 69.6197C190.096 69.3962 189.921 69.2077 189.663 69.0401C189.404 68.8725 189.118 68.7957 188.797 68.7957C188.273 68.7957 187.847 68.9144 187.505 69.1448C187.296 69.2915 187.191 69.4591 187.191 69.6546C187.191 69.8222 187.302 70.0317 187.526 70.2831C187.833 70.6323 187.987 70.9605 187.987 71.2817C187.987 71.6728 187.84 72.008 187.547 72.2873C187.254 72.5666 186.87 72.7063 186.395 72.7063C185.885 72.7063 185.466 72.5527 185.124 72.2454C184.782 71.9381 184.614 71.582 184.614 71.17C184.614 70.5904 184.844 70.0387 185.298 69.515C185.759 68.9912 186.395 68.5862 187.219 68.2999C188.036 68.0205 188.888 67.8809 189.775 67.8809C190.843 67.8809 191.688 68.1113 192.309 68.5652C192.931 69.0191 193.336 69.5149 193.525 70.0457C193.636 70.3809 193.692 71.156 193.692 72.3711V76.7496C193.692 77.2664 193.713 77.5876 193.755 77.7203C193.797 77.853 193.853 77.9507 193.937 78.0136C194.013 78.0764 194.111 78.1114 194.216 78.1114C194.425 78.1114 194.635 77.9647 194.858 77.6644L195.222 77.9507C194.816 78.5443 194.404 78.9773 193.972 79.2496C193.539 79.522 193.05 79.6547 192.505 79.6547C191.863 79.6547 191.36 79.501 190.997 79.2008C190.634 78.9005 190.417 78.4396 190.333 77.832V77.8181ZM190.333 76.9382V73.1672C189.363 73.7398 188.636 74.3474 188.161 74.9968C187.847 75.4298 187.694 75.8697 187.694 76.3097C187.694 76.6798 187.826 77.008 188.092 77.2873C188.294 77.5038 188.573 77.6155 188.937 77.6155C189.342 77.6155 189.802 77.3921 190.333 76.9382Z" fill="#1D1D1B"/>
<path d="M201.136 68.2089V69.6893C201.758 69.012 202.33 68.5441 202.854 68.2717C203.378 67.9994 203.958 67.8667 204.586 67.8667C205.312 67.8667 205.92 68.0343 206.409 68.3765C206.898 68.7117 207.275 69.2284 207.54 69.9198C208.182 69.1935 208.797 68.6768 209.391 68.3555C209.984 68.0343 210.599 67.8737 211.241 67.8737C212.023 67.8737 212.645 68.0552 213.106 68.4114C213.567 68.7675 213.888 69.2215 214.069 69.7731C214.251 70.3248 214.342 71.2047 214.342 72.4058V77.0218C214.342 77.8877 214.419 78.4254 214.579 78.6349C214.733 78.8444 215.061 78.9841 215.564 79.0469V79.4799H209.74V79.0469C210.201 79.005 210.536 78.8304 210.752 78.5162C210.899 78.2997 210.969 77.8039 210.969 77.0218V72.1754C210.969 71.1698 210.927 70.5343 210.85 70.255C210.766 69.9826 210.641 69.7801 210.473 69.6474C210.298 69.5148 210.096 69.4519 209.865 69.4519C209.516 69.4519 209.167 69.5776 208.818 69.829C208.462 70.0804 208.106 70.4645 207.742 70.9673V77.0218C207.742 77.8318 207.812 78.3416 207.945 78.5511C208.127 78.8514 208.483 79.012 209.006 79.0469V79.4799H203.168V79.0469C203.483 79.033 203.727 78.9492 203.909 78.8095C204.09 78.6698 204.209 78.5022 204.272 78.2997C204.335 78.1042 204.363 77.6782 204.363 77.0148V72.1684C204.363 71.1488 204.321 70.5064 204.244 70.248C204.16 69.9896 204.027 69.7871 203.839 69.6474C203.65 69.5008 203.448 69.4309 203.231 69.4309C202.91 69.4309 202.617 69.5147 202.351 69.6823C201.974 69.9337 201.569 70.3597 201.143 70.9603V77.0148C201.143 77.8109 201.22 78.3346 201.381 78.586C201.534 78.8374 201.863 78.9911 202.365 79.0399V79.4729H196.555V79.0399C197.03 78.9911 197.365 78.8374 197.568 78.579C197.708 78.4045 197.77 77.8807 197.77 77.0148V70.646C197.77 69.7941 197.694 69.2634 197.533 69.0539C197.379 68.8444 197.051 68.7117 196.548 68.6418V68.1949H201.143L201.136 68.2089Z" fill="#1D1D1B"/>
<path d="M221.43 68.2087V77.1403C221.43 77.9364 221.521 78.4462 221.709 78.6627C221.891 78.8861 222.254 79.0119 222.792 79.0398V79.4727H216.702V79.0398C217.198 79.0258 217.568 78.8792 217.813 78.6068C217.973 78.4252 218.057 77.9294 218.057 77.1333V70.5481C218.057 69.752 217.966 69.2423 217.778 69.0258C217.596 68.8023 217.233 68.6766 216.702 68.6487V68.2017H221.43V68.2087ZM219.74 62.7478C220.264 62.7478 220.704 62.9294 221.067 63.2995C221.43 63.6626 221.611 64.1026 221.611 64.6193C221.611 65.1361 221.43 65.569 221.06 65.9322C220.697 66.2953 220.257 66.4769 219.74 66.4769C219.223 66.4769 218.79 66.2953 218.427 65.9322C218.064 65.569 217.882 65.1291 217.882 64.6193C217.882 64.1095 218.064 63.6626 218.427 63.2995C218.79 62.9363 219.23 62.7478 219.74 62.7478Z" fill="#1D1D1B"/>
<path d="M233.441 73.4393H227.254C227.324 74.9338 227.722 76.1139 228.448 76.9869C229 77.6572 229.67 77.9855 230.452 77.9855C230.934 77.9855 231.374 77.8528 231.765 77.5804C232.156 77.3081 232.582 76.8262 233.029 76.1279L233.441 76.3933C232.833 77.6363 232.156 78.5232 231.416 79.0399C230.676 79.5567 229.817 79.8151 228.846 79.8151C227.177 79.8151 225.906 79.1726 225.047 77.8877C224.356 76.8542 224.014 75.5623 224.014 74.0259C224.014 72.1474 224.523 70.646 225.536 69.5357C226.555 68.4254 227.743 67.8667 229.111 67.8667C230.25 67.8667 231.241 68.3346 232.086 69.2703C232.924 70.2061 233.378 71.5958 233.441 73.4393ZM230.473 72.6293C230.473 71.3374 230.403 70.4435 230.264 69.9617C230.124 69.4798 229.9 69.1167 229.607 68.8653C229.44 68.7187 229.216 68.6488 228.93 68.6488C228.511 68.6488 228.169 68.8513 227.903 69.2634C227.428 69.9756 227.191 70.9603 227.191 72.2033V72.6223H230.473V72.6293Z" fill="#1D1D1B"/>
<path d="M239.461 68.2087V69.6682C240.04 69.0397 240.592 68.5858 241.123 68.2995C241.654 68.0132 242.226 67.8735 242.834 67.8735C243.567 67.8735 244.174 68.076 244.656 68.4811C245.138 68.8861 245.459 69.3889 245.62 69.9965C245.746 70.4574 245.816 71.3372 245.816 72.6361V77.0286C245.816 77.8945 245.892 78.4392 246.053 78.6487C246.207 78.8652 246.535 78.9979 247.038 79.0538V79.4867H241.332V79.0538C241.758 78.9979 242.066 78.8233 242.247 78.523C242.373 78.3205 242.443 77.8247 242.443 77.0286V72.0146C242.443 71.0928 242.408 70.5062 242.331 70.2688C242.254 70.0314 242.135 69.8428 241.961 69.7101C241.786 69.5775 241.598 69.5146 241.388 69.5146C240.697 69.5146 240.054 70.0104 239.461 70.9951V77.0356C239.461 77.8806 239.538 78.4113 239.698 78.6417C239.852 78.8652 240.145 79.0049 240.571 79.0607V79.4937H234.866V79.0607C235.341 79.0119 235.676 78.8582 235.878 78.5998C236.018 78.4253 236.081 77.9015 236.081 77.0356V70.6668C236.081 69.8149 236.004 69.2842 235.843 69.0747C235.69 68.8652 235.362 68.7325 234.859 68.6626V68.2157H239.454L239.461 68.2087Z" fill="#1D1D1B"/>
<path d="M253.056 64.0886V68.2157H255.731V69.4099H253.056V76.3652C253.056 77.0147 253.084 77.4337 253.147 77.6222C253.21 77.8108 253.315 77.9644 253.468 78.0831C253.622 78.2018 253.762 78.2577 253.887 78.2577C254.411 78.2577 254.907 77.8596 255.368 77.0635L255.731 77.3289C255.081 78.8722 254.02 79.6474 252.56 79.6474C251.848 79.6474 251.241 79.4448 250.745 79.0538C250.249 78.6557 249.935 78.2088 249.795 77.72C249.711 77.4476 249.676 76.7074 249.676 75.4993V69.4099H248.203V68.9909C249.215 68.2786 250.081 67.5244 250.787 66.7353C251.499 65.9462 252.121 65.0663 252.651 64.0956H253.049L253.056 64.0886Z" fill="#1D1D1B"/>
<path d="M262.128 67.8735C263.106 67.8735 264.021 68.1249 264.866 68.6347C265.711 69.1445 266.353 69.8638 266.786 70.7925C267.226 71.7283 267.442 72.7479 267.442 73.8582C267.442 75.4574 267.037 76.7982 266.227 77.8736C265.25 79.1725 263.895 79.8289 262.163 79.8289C260.431 79.8289 259.16 79.2353 258.245 78.0412C257.331 76.854 256.87 75.4713 256.87 73.9071C256.87 72.3428 257.338 70.8833 258.273 69.6822C259.209 68.4811 260.494 67.8805 262.128 67.8805V67.8735ZM262.177 68.7325C261.765 68.7325 261.416 68.8861 261.123 69.1934C260.829 69.5006 260.634 70.1152 260.543 71.023C260.452 71.9378 260.403 73.2018 260.403 74.8289C260.403 75.6878 260.459 76.4909 260.571 77.2381C260.662 77.8107 260.85 78.2437 261.136 78.537C261.423 78.8373 261.758 78.9839 262.128 78.9839C262.498 78.9839 262.791 78.8862 263.036 78.6836C263.35 78.4113 263.56 78.0272 263.664 77.5384C263.825 76.7772 263.909 75.2339 263.909 72.9085C263.909 71.5398 263.832 70.604 263.678 70.0942C263.525 69.5844 263.301 69.2143 263.001 68.9769C262.792 68.8093 262.519 68.7255 262.184 68.7255L262.177 68.7325Z" fill="#1D1D1B"/>
<path d="M286.29 63.1321V76.107C286.29 76.9799 286.311 77.5037 286.36 77.6643C286.423 77.9296 286.549 78.1252 286.73 78.2578C286.912 78.3835 287.226 78.4673 287.68 78.5023V78.9003L282.917 79.8291V78.0414C282.345 78.7327 281.835 79.2006 281.395 79.452C280.948 79.7034 280.445 79.8291 279.88 79.8291C278.441 79.8291 277.303 79.1866 276.465 77.9017C275.787 76.8542 275.452 75.5763 275.452 74.0539C275.452 72.8388 275.662 71.7494 276.081 70.7927C276.5 69.829 277.072 69.1098 277.799 68.6139C278.525 68.1251 279.307 67.8807 280.145 67.8807C280.683 67.8807 281.164 67.9855 281.576 68.195C281.995 68.4045 282.442 68.7676 282.917 69.2913V65.8905C282.917 65.0315 282.882 64.5148 282.806 64.3332C282.708 64.1028 282.561 63.9282 282.373 63.8164C282.177 63.7047 281.821 63.6488 281.29 63.6488V63.1391H286.297L286.29 63.1321ZM282.917 70.7788C282.324 69.6405 281.597 69.0679 280.732 69.0679C280.431 69.0679 280.187 69.1517 279.998 69.3123C279.698 69.5637 279.461 69.9966 279.272 70.6251C279.083 71.2536 278.986 72.2103 278.986 73.5092C278.986 74.9338 279.09 75.9883 279.3 76.6657C279.509 77.35 279.796 77.8458 280.159 78.1461C280.34 78.2998 280.599 78.3766 280.92 78.3766C281.625 78.3766 282.296 77.8249 282.924 76.7145V70.7788H282.917Z" fill="#1D1D1B"/>
<path d="M298.616 73.4393H292.429C292.498 74.9338 292.896 76.1139 293.623 76.9869C294.174 77.6572 294.845 77.9855 295.627 77.9855C296.109 77.9855 296.549 77.8528 296.94 77.5804C297.331 77.3081 297.757 76.8262 298.204 76.1279L298.616 76.3933C298.008 77.6363 297.331 78.5232 296.591 79.0399C295.85 79.5567 294.991 79.8151 294.021 79.8151C292.352 79.8151 291.081 79.1726 290.222 77.8877C289.531 76.8542 289.188 75.5623 289.188 74.0259C289.188 72.1474 289.698 70.646 290.711 69.5357C291.73 68.4254 292.917 67.8667 294.286 67.8667C295.424 67.8667 296.416 68.3346 297.261 69.2703C298.099 70.2061 298.553 71.5958 298.616 73.4393ZM295.648 72.6293C295.648 71.3374 295.578 70.4435 295.438 69.9617C295.299 69.4798 295.075 69.1167 294.782 68.8653C294.614 68.7187 294.391 68.6488 294.105 68.6488C293.686 68.6488 293.343 68.8513 293.078 69.2634C292.603 69.9756 292.366 70.9603 292.366 72.2033V72.6223H295.648V72.6293Z" fill="#1D1D1B"/>
<path d="M314.279 74.8291H308.504L307.819 76.4212C307.596 76.952 307.484 77.3919 307.484 77.7341C307.484 78.195 307.666 78.5302 308.036 78.7467C308.252 78.8724 308.79 78.9701 309.642 79.033V79.4799H304.202V79.033C304.789 78.9422 305.271 78.7048 305.648 78.3067C306.025 77.9087 306.493 77.0847 307.044 75.8416L312.889 62.7969H313.12L319.014 76.2048C319.579 77.4757 320.04 78.2718 320.403 78.607C320.676 78.8584 321.06 78.9981 321.563 79.04V79.4869H313.651V79.04H313.979C314.614 79.04 315.061 78.9492 315.32 78.7746C315.494 78.6489 315.585 78.4604 315.585 78.2229C315.585 78.0763 315.564 77.9296 315.515 77.776C315.501 77.7062 315.375 77.3989 315.152 76.8682L314.286 74.8291H314.279ZM313.867 73.9352L311.43 68.3067L308.923 73.9352H313.867Z" fill="#1D1D1B"/>
<path d="M329.908 68.3418H333.707V69.6686H331.549C331.94 70.0597 332.219 70.4228 332.366 70.744C332.562 71.177 332.652 71.6309 332.652 72.1058C332.652 72.9089 332.429 73.6072 331.982 74.2008C331.535 74.7943 330.927 75.2552 330.159 75.5904C329.391 75.9256 328.714 76.0932 328.113 76.0932C328.064 76.0932 327.582 76.0723 326.668 76.0304C326.304 76.0304 326.004 76.1491 325.76 76.3865C325.515 76.624 325.39 76.9103 325.39 77.2385C325.39 77.5248 325.501 77.7622 325.718 77.9508C325.941 78.1324 326.297 78.2301 326.8 78.2301L328.888 78.2092C330.578 78.2092 331.737 78.3907 332.373 78.7608C333.281 79.2776 333.735 80.0667 333.735 81.1352C333.735 81.8195 333.525 82.441 333.106 82.9997C332.687 83.5584 332.136 83.9704 331.451 84.2357C330.418 84.6268 329.224 84.8293 327.869 84.8293C326.856 84.8293 325.934 84.7315 325.096 84.536C324.258 84.3405 323.665 84.0681 323.302 83.719C322.939 83.3698 322.757 82.9997 322.757 82.6156C322.757 82.2315 322.897 81.9173 323.176 81.624C323.455 81.3307 323.972 81.0863 324.726 80.8838C323.679 80.367 323.162 79.6547 323.162 78.7399C323.162 78.1882 323.372 77.6435 323.804 77.1268C324.23 76.603 324.908 76.1491 325.83 75.765C324.754 75.374 323.972 74.8502 323.49 74.2078C323.008 73.5653 322.764 72.8181 322.764 71.9801C322.764 70.8767 323.211 69.927 324.112 69.1169C325.013 68.3069 326.172 67.9019 327.582 67.9019C328.33 67.9019 329.105 68.0555 329.901 68.3697L329.908 68.3418ZM327.108 81.1491C326.291 81.1491 325.746 81.219 325.48 81.3516C325.02 81.603 324.796 81.9382 324.796 82.3642C324.796 82.7902 325.034 83.1463 325.508 83.4815C325.983 83.8167 326.877 83.9843 328.183 83.9843C329.3 83.9843 330.18 83.8377 330.816 83.5374C331.458 83.2371 331.772 82.8251 331.772 82.2804C331.772 82.0779 331.71 81.9103 331.591 81.7706C331.374 81.5262 331.046 81.3656 330.606 81.2748C330.166 81.184 329 81.1421 327.101 81.1421L327.108 81.1491ZM327.82 68.6211C327.352 68.6211 326.961 68.8586 326.64 69.3264C326.318 69.7943 326.158 70.772 326.158 72.2524C326.158 73.4536 326.318 74.2706 326.633 74.7175C326.947 75.1645 327.324 75.3879 327.757 75.3879C328.239 75.3879 328.644 75.1645 328.965 74.7245C329.286 74.2846 329.447 73.4256 329.447 72.1407C329.447 70.7021 329.265 69.7245 328.902 69.2007C328.644 68.8167 328.281 68.6211 327.82 68.6211Z" fill="#1D1D1B"/>
<path d="M345.906 68.2088V77.0356C345.906 77.8946 345.983 78.4323 346.151 78.6418C346.311 78.8583 346.639 78.991 347.128 79.0468V79.4798H342.533V77.9714C341.996 78.6139 341.458 79.0817 340.92 79.375C340.382 79.6683 339.782 79.815 339.111 79.815C338.441 79.815 337.91 79.6195 337.415 79.2284C336.919 78.8373 336.59 78.3834 336.423 77.8597C336.255 77.3359 336.172 76.4281 336.172 75.1222V70.6459C336.172 69.794 336.095 69.2633 335.934 69.0538C335.78 68.8443 335.452 68.7116 334.949 68.6418V68.1948H339.544V75.8974C339.544 76.7005 339.579 77.2172 339.656 77.4546C339.733 77.6851 339.852 77.8667 340.019 77.9854C340.187 78.1041 340.375 78.1669 340.592 78.1669C340.878 78.1669 341.144 78.0901 341.374 77.9365C341.695 77.727 342.079 77.308 342.533 76.6725V70.6459C342.533 69.794 342.456 69.2633 342.296 69.0538C342.142 68.8443 341.814 68.7116 341.311 68.6418V68.1948H345.906V68.2088Z" fill="#1D1D1B"/>
<path d="M354.97 77.8181C353.594 79.0332 352.358 79.6407 351.269 79.6407C350.627 79.6407 350.089 79.4312 349.663 79.0052C349.237 78.5862 349.02 78.0555 349.02 77.42C349.02 76.5611 349.391 75.7859 350.131 75.1016C350.871 74.4172 352.484 73.5024 354.963 72.3571V71.2259C354.963 70.3739 354.914 69.8362 354.823 69.6197C354.733 69.3962 354.558 69.2077 354.3 69.0401C354.041 68.8725 353.755 68.7957 353.434 68.7957C352.91 68.7957 352.484 68.9144 352.142 69.1448C351.932 69.2915 351.828 69.4591 351.828 69.6546C351.828 69.8222 351.939 70.0317 352.163 70.2831C352.47 70.6323 352.624 70.9605 352.624 71.2817C352.624 71.6728 352.477 72.008 352.184 72.2873C351.891 72.5666 351.506 72.7063 351.032 72.7063C350.522 72.7063 350.103 72.5527 349.761 72.2454C349.418 71.9381 349.251 71.582 349.251 71.17C349.251 70.5904 349.481 70.0387 349.935 69.515C350.396 68.9912 351.032 68.5862 351.856 68.2999C352.673 68.0205 353.525 67.8809 354.411 67.8809C355.48 67.8809 356.325 68.1113 356.946 68.5652C357.568 69.0191 357.973 69.5149 358.162 70.0457C358.273 70.3809 358.329 71.156 358.329 72.3711V76.7496C358.329 77.2664 358.35 77.5876 358.392 77.7203C358.434 77.853 358.49 77.9507 358.573 78.0136C358.65 78.0764 358.748 78.1114 358.853 78.1114C359.062 78.1114 359.272 77.9647 359.495 77.6644L359.858 77.9507C359.453 78.5443 359.041 78.9773 358.608 79.2496C358.175 79.522 357.687 79.6547 357.142 79.6547C356.499 79.6547 355.997 79.501 355.634 79.2008C355.27 78.9005 355.054 78.4396 354.97 77.832V77.8181ZM354.97 76.9382V73.1672C353.999 73.7398 353.273 74.3474 352.798 74.9968C352.484 75.4298 352.33 75.8697 352.33 76.3097C352.33 76.6798 352.463 77.008 352.729 77.2873C352.931 77.5038 353.21 77.6155 353.573 77.6155C353.979 77.6155 354.439 77.3921 354.97 76.9382Z" fill="#1D1D1B"/>
<path d="M368.225 67.8948L368.407 71.7426H367.994C367.506 70.6043 366.996 69.8222 366.472 69.4032C365.948 68.9842 365.418 68.7747 364.901 68.7747C364.573 68.7747 364.293 68.8865 364.056 69.1099C363.826 69.3334 363.707 69.5848 363.707 69.8781C363.707 70.0946 363.784 70.3041 363.951 70.5066C364.21 70.8348 364.929 71.4004 366.109 72.2035C367.289 73.0066 368.071 73.684 368.441 74.2426C368.812 74.8013 369 75.4298 369 76.1211C369 76.7496 368.846 77.3641 368.532 77.9647C368.218 78.5653 367.778 79.0332 367.205 79.3544C366.633 79.6756 366.004 79.8362 365.313 79.8362C364.775 79.8362 364.056 79.6686 363.155 79.3265C362.911 79.2357 362.75 79.1938 362.659 79.1938C362.394 79.1938 362.17 79.3963 361.996 79.7943H361.598L361.402 75.744H361.814C362.177 76.8055 362.673 77.6016 363.302 78.1323C363.93 78.663 364.531 78.9284 365.089 78.9284C365.474 78.9284 365.788 78.8097 366.039 78.5723C366.284 78.3348 366.409 78.0485 366.409 77.7133C366.409 77.3292 366.291 76.994 366.046 76.7147C365.802 76.4354 365.264 76.0094 364.433 75.4368C363.204 74.5848 362.408 73.9354 362.045 73.4814C361.514 72.825 361.249 72.0918 361.249 71.2957C361.249 70.4298 361.549 69.6407 362.149 68.9353C362.75 68.23 363.616 67.8809 364.747 67.8809C365.355 67.8809 365.948 68.0275 366.521 68.3278C366.738 68.4465 366.912 68.5094 367.052 68.5094C367.198 68.5094 367.31 68.4814 367.401 68.4186C367.492 68.3557 367.631 68.1881 367.82 67.9088H368.232L368.225 67.8948Z" fill="#1D1D1B"/>
</svg>
